<mxfile host="app.diagrams.net" modified="2024-03-20T10:30:26.290Z" agent="Mozilla/5.0 (X11; Ubuntu; Linux x86_64; rv:123.0) Gecko/20100101 Firefox/123.0" version="24.0.7" etag="tsxQL8rd_1lwXvcETqtf" type="github">
  <diagram name="Page-1" id="vEr438vfyGdaA0j2l_e0">
    <mxGraphModel>
      <root>
        <mxCell id="0" />
        <mxCell id="1" parent="0" />
      </root>
    </mxGraphModel>
  </diagram>
</mxfile>
